<svg width="533" height="243" viewBox="0 0 533 243" fill="none" xmlns="http://www.w3.org/2000/svg">
<path fill-rule="evenodd" clip-rule="evenodd" d="M495.783 102.609C492.888 98.7423 490.331 94.9405 487.384 91.464C484.004 87.4953 480.035 84.0226 476.766 79.987C468.606 69.8288 457.369 62.5934 444.744 59.3686C440.06 57.9192 435.276 56.8178 430.43 56.0731C426.6 55.7257 422.739 56.009 419.001 56.9123C411.418 58.6033 403.671 60.1209 396.53 62.9747C385.314 67.2004 374.874 73.2507 365.631 80.8806C359.739 85.8801 353.934 90.7624 349.642 97.1566C341.522 109.379 331.984 120.461 322.674 131.744C321.577 133.11 320.522 134.662 319.575 136.135C314.954 143.297 309.241 149.692 302.642 155.087C293.754 162.298 282.464 165.873 271.045 165.091C262.835 164.681 254.906 161.967 248.167 157.26C241.71 152.688 235.606 147.561 228.931 143.332C221.47 138.429 213.658 134.083 205.558 130.328C195.717 125.785 185.071 123.243 174.238 122.851C167.198 122.698 160.688 124.612 154.018 126.436C145.834 128.696 138.985 133.615 131.508 137.286C122.197 141.756 113.55 147.495 105.814 154.339C99.9049 159.637 94.0476 164.979 88.1384 170.276C76.8256 180.437 67.3552 192.26 57.8149 203.959C53.7109 208.994 50.5882 214.847 47.1225 220.357C43.079 226.794 39.1854 233.338 35.1626 239.742C34.3461 240.857 33.4474 241.91 32.4739 242.892C31.6765 241.893 31.0826 241.24 30.5436 240.52C20.777 226.05 11.046 211.573 1.35066 197.087C0.937448 196.587 0.71571 195.956 0.724997 195.307C0.734283 194.658 0.973991 194.033 1.40135 193.545C7.03785 184.763 12.3166 175.696 18.2916 167.175C22.8187 160.874 27.7048 154.838 32.9257 149.099C38.5846 142.44 44.5966 136.089 50.9357 130.074C60.6458 121.21 70.7019 112.704 80.9851 104.525C87.194 99.7437 93.7093 95.3744 100.489 91.4446C104.196 89.2165 108.614 87.9787 112.611 86.1064C117.689 83.7408 122.521 81.0936 127.513 78.7192C136.699 74.3431 146.459 71.2888 156.501 69.6475C177.261 66.0964 197.288 69.0571 216.903 76.5797C231.319 82.2117 245.115 89.3207 258.068 97.7932C262.668 100.761 267.023 104.204 271.749 107.55C274.139 104.383 276.484 101.197 278.907 98.0502C282.899 92.8718 286.908 87.7038 290.934 82.546L301.953 68.4294C311.435 55.9999 322.471 44.8359 334.79 35.2096C346.965 26.0464 360.219 18.4125 374.254 12.4789C387.555 6.70981 401.692 3.55697 415.991 1.44685C427.371 -0.189487 438.964 0.494823 450.072 3.4589C461.96 6.4969 473.636 10.2829 484.47 16.2605C494.208 21.6943 502.947 28.7495 510.311 37.1224C517.08 44.6653 523.862 52.205 530.54 59.8385C532.951 62.6078 532.855 63.1197 530.323 65.8423C519.637 77.4089 508.925 88.944 498.187 100.447C497.503 101.147 496.693 101.789 495.783 102.609Z" fill="#F15A22"/>
</svg>
