<svg width="340" height="296" viewBox="0 0 340 296" fill="none" xmlns="http://www.w3.org/2000/svg">
<path fill-rule="evenodd" clip-rule="evenodd" d="M280.092 295.04L286.545 289.29C286.6 290.809 286.655 291.322 286.713 292.091C288.006 290.996 289.239 289.882 290.457 288.763C291.136 288.203 291.762 287.592 292.331 286.935C293.781 285.29 295.097 283.546 296.269 281.716C304.128 268.164 308.717 253.358 313.7 238.677C316.2 231.308 319.287 224.14 321.928 216.801C323.763 211.656 325.056 206.326 327.022 201.238C330.051 193.406 333.693 185.796 336.571 177.916C338.016 173.955 339.076 169.948 337.539 165.2C336.4 161.568 337.495 157.347 338.09 153.495C340.679 136.949 337.917 120.583 333.377 104.258C331.312 96.1479 327.706 88.357 322.73 81.2517C314.855 70.3956 306.065 60.1226 294.744 52.0722C287.126 46.6869 279.178 41.7247 270.945 37.2145C265.908 34.6696 260.629 32.5966 255.191 31.029C244.294 27.4522 233.312 24.1486 222.372 20.7085C215.275 18.5517 208.133 16.5909 201.006 14.5298C194.781 12.7224 188.575 10.9062 182.362 9.11723L152.257 0.491186L153.377 1.32396L150.032 0.947846L132.842 55.6112C136.039 56.6166 139.347 57.7468 142.691 58.7083C150.244 60.8434 157.81 62.9223 165.388 64.945C171.359 66.5525 177.391 67.9687 183.356 69.6493C189.738 71.4312 196.052 73.4317 202.413 75.282C205.768 76.2619 209.194 76.9637 212.491 78.0755C225.848 82.5615 239.695 86.1802 251.218 94.5944C258.976 100.263 266.746 106.37 269.627 115.476C271.63 122.203 273.044 129.036 273.857 135.908C274.466 140.7 274.441 145.508 273.784 150.226C273.004 156.707 271.675 163.092 269.809 169.325C267.432 176.882 264.04 184.12 261.292 191.59C259.612 196.138 258.378 200.856 256.789 205.432C254.888 210.736 252.669 215.94 250.722 221.229C250.219 222.828 249.467 223.102 247.669 222.522C239.335 219.901 231.041 217.158 222.645 214.788C212.581 211.953 202.392 209.515 192.306 206.749C183.98 204.476 175.755 201.829 167.407 199.624C153.668 195.98 139.876 192.558 126.113 189.041C118.746 187.16 111.422 185.142 104.027 183.402C91.7671 180.508 79.4688 177.842 67.2003 174.975C58.89 173.022 50.6397 170.878 42.3508 168.857C30.5495 165.987 18.7249 163.245 6.94938 160.292C0.4957 158.683 -5.90014 156.837 -12.2959 154.991C-26.5549 150.883 -40.7882 146.692 -55.0125 142.579C-56.5969 141.969 -58.2844 141.669 -59.9634 141.698C-60.551 141.919 -61.0733 142.255 -61.4953 142.684C-61.9174 143.113 -62.2295 143.625 -62.4111 144.187C-65.0531 151 -67.34 157.955 -70.0838 164.721C-73.3138 172.715 -76.9487 180.673 -80.3691 188.637C-81.243 190.675 -81.9395 192.784 -82.9419 195.442C-75.9419 197.643 -69.3869 199.99 -62.6902 201.991C-54.9588 204.302 -47.1673 206.422 -39.3672 208.515C-30.0347 211.029 -20.6678 213.434 -11.301 215.839C-6.30365 217.155 -1.34073 218.581 3.66721 219.81C15.3647 222.693 27.0837 225.507 38.7983 228.335C46.4465 230.17 54.11 232.009 61.7796 233.775C68.2222 235.26 74.6989 236.531 81.1157 238.099C88.0454 239.782 94.9713 241.69 101.813 243.496C104.734 244.265 107.658 245.079 110.589 245.82L136.295 252.282C140.483 253.314 144.701 254.25 148.874 255.382C153.479 256.62 158.09 258.16 162.737 259.426C173.123 262.242 183.572 264.912 193.97 267.746C199.526 269.298 205 271.215 210.53 272.954C217.889 275.178 225.309 277.211 232.653 279.536C242.244 282.552 251.753 285.828 261.329 288.944C267.73 291.197 274.334 293.229 280.092 295.04ZM249.828 90.8084L249.362 91.3376L238.29 85.4079C238.346 85.2302 238.478 85.0764 238.579 84.913L249.828 90.8084Z" fill="#FFDE40"/>
</svg>
