<svg width="330" height="338" viewBox="0 0 330 338" fill="none" xmlns="http://www.w3.org/2000/svg">
<path fill-rule="evenodd" clip-rule="evenodd" d="M46.4007 77.6004L49.4051 77.9433L49.514 77.4724L39.9136 75.2512L40.0999 74.446L44.1883 75.0078L44.4302 74.5835C43.7021 74.3351 43.014 73.9818 42.3878 73.5348C41.4283 72.6405 39.8225 71.5007 39.8747 70.5845C40.3749 64.762 40.9768 58.915 42.064 53.1802C44.33 40.8997 46.89 28.5911 49.3334 16.3036C49.5408 15.4072 49.7482 14.5109 49.9345 13.7057C53.5897 14.5513 57.0023 15.3409 60.4299 16.1339C67.8871 18.0193 75.2916 20.1325 82.8061 21.839C90.9506 23.7233 99.1795 25.243 107.409 26.827C109.478 27.2096 111.643 27.0383 113.677 27.3647C116.138 27.7742 118.539 28.5858 121.002 29.0596C125.467 29.7885 129.968 30.3655 134.457 30.9881C134.73 31.0512 135.155 31.1495 135.267 31.0794C135.379 31.0093 135.581 30.2076 135.641 30.2217C139.433 31.0989 143.203 32.0672 147.078 32.7236C151.907 33.5368 156.796 34.0916 161.663 34.6734C169.168 35.5934 176.711 36.3463 184.202 37.3271C194.217 38.652 204.213 40.0629 214.189 41.56C221.228 42.6283 228.244 43.8673 235.24 45.118C243.006 46.4985 250.784 47.8977 258.504 49.4758C263.431 50.4876 268.263 51.9098 273.15 53.0245C279.353 54.4597 285.604 55.6179 291.792 57.0496C316.18 62.692 340.568 68.3345 364.956 73.9769C379.881 77.4298 394.848 80.6953 409.859 83.7734C419.004 85.6813 428.238 87.2093 437.419 88.9652C440.477 89.5607 443.485 90.3688 446.777 91.1303C446.728 91.8398 446.64 92.5462 446.511 93.2457C441.966 112.063 437.419 130.885 432.871 149.712C432.351 151.961 432.241 153.2 428.848 152.463C413.231 149.106 397.425 146.633 381.793 143.337C363.876 139.56 346.052 135.244 328.194 131.144C321.839 129.674 315.484 128.204 309.129 126.733C302.774 125.263 296.095 123.398 289.479 121.883C277.801 119.181 266.065 116.658 254.352 114.108C244.81 112.045 235.294 109.875 225.698 108.119C214.965 106.164 204.155 104.543 193.242 102.883C185.518 101.736 177.631 100.743 169.811 99.7344C161.072 98.6249 152.32 97.6404 143.591 96.4852C136.876 95.6039 130.188 94.5368 123.484 93.6099C113.562 92.2266 103.62 90.9987 93.7257 89.4939C87.9211 88.6151 82.1575 87.4897 76.4326 86.1972C68.8492 84.4427 61.4633 82.5258 53.9863 80.5878C51.3624 79.9808 48.816 79.0396 46.2156 78.2619C46.3011 77.9615 46.3433 77.7792 46.4007 77.6004Z" fill="#16193A"/>
<path fill-rule="evenodd" clip-rule="evenodd" d="M385.678 335.668L379.187 334.166L380.659 335.259C380.624 335.411 380.589 335.563 380.557 335.699C377.872 335.222 375.158 334.866 372.51 334.222C367.964 333.106 363.45 331.901 358.966 330.608C353.952 329.144 348.998 327.421 343.948 326.045C339.212 324.757 334.362 323.827 329.594 322.612C320.34 320.135 311.158 317.418 301.901 314.956C297.704 313.825 293.392 313.196 289.175 312.156C279.162 309.712 269.19 307.164 259.188 304.674C246.501 301.499 233.775 298.49 221.138 295.166C212.78 292.961 204.517 290.345 196.227 287.915C189.106 285.819 181.97 283.72 174.86 281.578C168.888 279.765 162.952 277.799 157.057 276.067C155.083 275.482 152.912 275.54 150.92 274.967C147.174 273.892 143.501 272.499 139.801 271.434C138.036 270.914 136.129 270.937 134.343 270.508C130.294 269.571 126.311 268.345 122.298 267.321C119.143 266.591 116.003 265.865 112.864 265.138C108.814 264.201 104.84 263.01 100.783 262.103C98.2201 261.51 95.5573 261.278 92.966 260.807C91.9954 260.582 91.0635 260.19 90.1034 259.92C86.0015 258.795 81.9382 257.503 77.7766 256.636C71.8067 255.367 65.7359 254.603 59.7881 253.307C53.8404 252.011 48.1452 250.245 42.2979 248.86C38.764 248.042 35.1388 247.62 31.5792 246.844C24.9059 245.3 18.2324 243.756 11.5814 241.977L18.3392 242.052C18.376 241.928 18.4054 241.801 18.4271 241.672L7.29456 239.097C9.39824 236.911 6.13731 232.635 11.2514 232.009L8.8343 231.13C11.2158 213.93 13.6148 196.655 15.9663 179.032C22.3661 179.824 28.4512 180.32 34.2627 181.376C43.2488 183.007 52.1797 184.945 61.0744 186.971C67.9146 188.554 74.6191 190.585 81.4931 192.159C90.9268 194.342 100.441 196.175 109.911 198.27C117.176 199.951 124.441 201.632 131.706 203.313C145.212 206.725 158.707 210.205 172.193 213.752C179.451 215.671 186.637 217.83 193.844 219.898C200.437 221.791 206.994 223.836 213.622 225.578C229.032 229.645 244.452 233.623 259.882 237.513C274.975 241.341 290.252 245.068 305.434 248.853C311.947 250.471 318.469 252.045 324.949 253.736C336.857 256.827 348.783 259.906 360.652 263.165C370.419 265.841 380.13 268.759 389.861 271.523C391.366 271.975 392.84 272.525 394.274 273.168C398.537 275.115 398.485 275.135 397.52 279.857C393.838 297.242 390.168 314.629 386.507 332.018C386.277 333.149 386.008 334.24 385.678 335.668Z" fill="#16193A"/>
<path fill-rule="evenodd" clip-rule="evenodd" d="M430.484 186.863L419.355 234.964L413.547 235.621L413.441 236.492L418.713 238.224L417.56 243.208L412.409 243.232L416.608 245.804C414.848 245.605 413.884 245.558 412.952 245.375C405.753 244.029 398.635 242.062 391.372 241.406C379.388 240.234 368.07 236.319 356.348 233.943C348.719 232.386 341.146 230.106 333.526 228.231C316.622 224.085 299.707 219.958 282.783 215.851C277.034 214.521 271.286 213.191 265.558 211.497L268.338 211.292L268.447 210.821C263.639 209.709 258.816 208.593 254.008 207.481C245.434 205.385 236.912 203.125 228.316 201.12C210.41 196.977 192.481 192.883 174.53 188.836C166.522 186.984 158.41 185.651 150.367 183.95C143.021 182.411 135.731 180.564 128.342 179.143C112.908 176.1 97.4359 173.289 81.991 170.291C75.4585 169.036 68.9566 167.58 62.4523 166.203C54.2726 164.471 46.1222 162.681 37.9284 161.009C34.5011 160.47 31.107 159.738 27.762 158.817L36.1996 159.297L36.2945 158.887L27.7446 156.268C27.9809 154.418 28.2443 152.174 28.5499 149.748L32.4773 150.385C32.5375 150.279 32.6037 150.177 32.6759 150.079C32.1534 149.782 31.6102 149.16 31.1469 149.229C28.863 149.501 28.6134 148.162 28.8262 146.483C30.896 130.262 32.9871 114.041 35.0997 97.8194C35.1895 97.4305 35.325 97.0534 35.5033 96.6963C40.7466 97.6533 45.9199 98.4981 51.0441 99.5556C62.361 101.886 73.6545 104.387 84.975 106.702C104.804 110.777 124.686 114.625 144.37 118.843C170.126 124.306 195.853 129.826 221.521 135.668C247.189 141.511 273.178 147.828 298.97 154.035C311.443 157.033 323.845 160.334 336.326 163.366C349.413 166.538 362.579 169.44 375.728 172.626C388.876 175.812 401.723 178.641 414.644 181.982C419.841 183.137 424.894 185.058 430.484 186.863Z" fill="#16193A"/>
</svg>
